# Blender 3.1.2
# www.blender.org
mtllib db_logo.mtl
o Cube
v -0.200000 -0.010000 0.200000
v -0.200000 0.010000 0.200000
v -0.200000 -0.010000 -0.200000
v -0.200000 0.010000 -0.200000
v 0.200000 -0.010000 0.200000
v 0.200000 0.010000 0.200000
v 0.200000 -0.010000 -0.200000
v 0.200000 0.010000 -0.200000
vn -1.0000 -0.0000 -0.0000
vn -0.0000 -0.0000 -1.0000
vn 1.0000 -0.0000 -0.0000
vn -0.0000 -0.0000 1.0000
vn -0.0000 -1.0000 -0.0000
vn -0.0000 1.0000 -0.0000
vt 0.227645 0.045954
vt 0.227645 0.773083
vt 0.045863 0.591300
vt 0.409427 0.045954
vt 0.409427 0.773083
vt 0.591210 0.591300
vt 0.227645 0.227736
vt 0.045863 0.409518
vt 0.409427 0.227736
vt 0.591210 0.409518
vt 0.227645 0.591300
vt 0.409427 0.591300
vt 0.227645 0.409518
vt 0.409427 0.409518
s 0
g Cube_Material.001
usemtl Material.001
f 1/1/1 2/4/1 4/9/1 3/7/1
f 3/7/2 4/9/2 8/14/2 7/13/2
f 7/13/3 8/14/3 6/12/3 5/11/3
f 5/11/4 6/12/4 2/5/4 1/2/4
f 3/8/5 7/13/5 5/11/5 1/3/5
f 8/14/6 4/10/6 2/6/6 6/12/6
